<svg xmlns="http://www.w3.org/2000/svg" width="28" height="18" viewBox="0 0 28 18" fill="none">
  <path d="M27.8098 8.41135C27.5624 8.06595 21.5933 0 14 0C6.40671 0 0.437559 8.06595 0.190205 8.41135C0.0668075 8.58064 0 8.78739 0 9C0 9.21261 0.0668075 9.41936 0.190205 9.58865C0.437559 9.93405 6.40671 18 14 18C21.5933 18 27.5624 9.93405 27.8098 9.58865C27.9332 9.41936 28 9.21261 28 9C28 8.78739 27.9332 8.58064 27.8098 8.41135ZM14 16.0541C8.44621 16.0541 3.62049 10.7903 2.14103 9C3.62049 7.20486 8.43221 1.94595 14 1.94595C19.5678 1.94595 24.3795 7.20973 25.859 9C24.3795 10.7951 19.5678 16.0541 14 16.0541Z" fill="#708B75"/>
</svg>