<svg width="203" height="194" viewBox="0 0 203 194" fill="none" xmlns="http://www.w3.org/2000/svg">
<g id="Group">
<path id="Vector" d="M43.9002 54.2489C39.4885 58.4921 37.4671 65.7653 38.5858 73.4493C39.271 78.2928 40.2995 81.0536 43.2372 86.142C45.632 90.2247 46.2391 91.0803 48.3257 93.1925C49.6475 94.5025 52.0777 96.4916 53.7388 97.6056C58.6121 100.823 62.8411 102.075 67.6299 101.685C74.8518 101.133 80.3259 96.3145 82.2776 88.8554C83.6719 83.565 83.3814 78.2297 81.4365 72.3797C80.4885 69.497 79.9575 68.4467 77.5921 64.6109C73.9505 58.7604 70.949 55.7818 65.5863 52.6966C62.9637 51.1577 57.4381 49.7495 54.6364 49.8595C50.5512 50.0319 46.6829 51.6246 43.9002 54.2489Z" fill="#708B75" fill-opacity="0.75"/>
<path id="Vector_2" d="M87.0245 29.4263C82.403 33.8284 80.4416 41.8584 82.0074 49.9251C83.7387 58.8008 89.4345 67.6868 96.5378 72.4809C111.663 82.7452 127.453 73.8545 126.293 55.7161C126.2 53.9228 125.701 50.9693 125.228 49.1696C124.421 46.2053 124.098 45.4496 121.421 40.8135C118.745 36.1774 118.252 35.5197 116.105 33.3673C106.567 23.8347 94.594 22.2291 87.0245 29.4263Z" fill="#708B75" fill-opacity="0.75"/>
<path id="Vector_3" d="M32.5615 109.117C28.3522 113.319 26.957 119.326 28.6748 126.023C29.9974 131.252 34.2797 137.298 39.0324 140.698C43.6186 144.005 49.4128 145.749 54.4931 145.341C57.2296 145.118 57.8484 144.949 60.1757 143.756C64.5758 141.517 66.7799 139.001 68.1222 134.796C69.0091 132.022 69.079 128.552 68.3386 124.984C67.8421 122.557 67.5516 121.858 65.4832 118.34C63.492 114.892 62.9339 114.121 60.9986 112.336C51.8213 103.688 39.3632 102.287 32.5615 109.117Z" fill="#708B75" fill-opacity="0.75"/>
<path id="Vector_4" d="M140.432 46.8367C132.919 54.0013 132.556 69.1746 139.708 78.6897C142.2 81.9621 144.452 83.9035 147.601 85.4399C152.633 87.8869 157.306 87.7523 162.056 85.0097C165.195 83.1977 167.129 81.0631 168.823 77.5976C171.162 72.7038 171.638 66.7374 170.198 60.5206C169.575 57.9401 169.183 56.9985 167.318 53.703C165.73 50.888 164.724 49.4714 163.65 48.3952C159.673 44.5101 154.691 42.411 150.116 42.7153C146.052 42.9889 143.198 44.1842 140.432 46.8367Z" fill="#708B75" fill-opacity="0.75"/>
<path id="Vector_5" d="M91.595 95.1986C79.5463 106 74.7462 124.262 78.8042 143.894C81.241 155.754 85.4419 162.639 92.6354 166.74C96.8288 169.106 102.892 170.204 107.346 169.366C112.177 168.461 115.396 166.527 119.435 162.16C124.449 156.74 126.333 155.237 133.063 151.352C139.849 147.434 142.149 146.521 149.411 144.929C152.761 144.201 153.533 143.906 156.179 142.416C159.657 140.408 162.015 138.029 164.012 134.501C166.588 129.885 167.33 122.748 165.804 117.297C163.772 109.989 156.19 101.363 145.879 94.5385C132.555 85.7601 117.731 83.1998 104.969 87.477C100.667 88.9056 94.9268 92.2195 91.595 95.1986Z" fill="#708B75" fill-opacity="0.75"/>
</g>
</svg>
